HIERARCHY
ROOT mixamorig:Hips
{
	OFFSET 0.00 0.00 0.00
	CHANNELS 6 Xposition Yposition Zposition Zrotation Yrotation Xrotation
	JOINT mixamorig:Spine
	{
		OFFSET	0.0000	9.9235	-1.2273
		CHANNELS 3 Zrotation Yrotation Xrotation
		JOINT mixamorig:Spine1
		{
			OFFSET	-0.0001	11.6455	-1.4224
			CHANNELS 3 Zrotation Yrotation Xrotation
			JOINT mixamorig:Spine2
			{
				OFFSET	0.0001	13.3602	-1.6265
				CHANNELS 3 Zrotation Yrotation Xrotation
				JOINT mixamorig:Neck
				{
					OFFSET	0.0000	15.0325	0.7929
					CHANNELS 3 Zrotation Yrotation Xrotation
					JOINT mixamorig:Head
					{
						OFFSET	-0.0000	10.3218	3.1424
						CHANNELS 3 Zrotation Yrotation Xrotation
						JOINT mixamorig:HeadTop_End
						{
							OFFSET	0.0002	18.4747	6.6364
							CHANNELS 3 Zrotation Yrotation Xrotation
							End Site
							{
								OFFSET 0.0000 0.0000 0.0000
							}
						}
						JOINT mixamorig:LeftEye
						{
							OFFSET	2.9479	7.6817	9.1207
							CHANNELS 3 Zrotation Yrotation Xrotation
							End Site
							{
								OFFSET 0.0000 0.0000 0.0000
							}
						}
						JOINT mixamorig:RightEye
						{
							OFFSET	-2.9445	7.6817	9.1205
							CHANNELS 3 Zrotation Yrotation Xrotation
							End Site
							{
								OFFSET 0.0000 0.0000 0.0000
							}
						}
					}
				}
				JOINT mixamorig:LeftShoulder
				{
					OFFSET	6.1059	9.1104	0.7056
					CHANNELS 3 Zrotation Yrotation Xrotation
					JOINT mixamorig:LeftArm
					{
						OFFSET	12.6532	-0.3431	-2.6009
						CHANNELS 3 Zrotation Yrotation Xrotation
						JOINT mixamorig:LeftForeArm
						{
							OFFSET	27.3517	-0.9645	-1.4034
							CHANNELS 3 Zrotation Yrotation Xrotation
							JOINT mixamorig:LeftHand
							{
								OFFSET	27.5619	-0.7072	1.5500
								CHANNELS 3 Zrotation Yrotation Xrotation
								JOINT mixamorig:LeftHandMiddle1
								{
									OFFSET	12.6630	-1.3962	0.9548
									CHANNELS 3 Zrotation Yrotation Xrotation
									JOINT mixamorig:LeftHandMiddle2
									{
										OFFSET	3.6093	-0.1669	0.0778
										CHANNELS 3 Zrotation Yrotation Xrotation
										JOINT mixamorig:LeftHandMiddle3
										{
											OFFSET	3.4004	-0.6274	0.1148
											CHANNELS 3 Zrotation Yrotation Xrotation
											End Site
											{
												OFFSET 3.6205 -0.6493 0.1199
											}
										}
									}
								}
								JOINT mixamorig:LeftHandThumb1
								{
									OFFSET	3.3268	-2.0474	3.5790
									CHANNELS 3 Zrotation Yrotation Xrotation
									JOINT mixamorig:LeftHandThumb2
									{
										OFFSET	3.4890	-1.4806	2.8548
										CHANNELS 3 Zrotation Yrotation Xrotation
										JOINT mixamorig:LeftHandThumb3
										{
											OFFSET	3.4086	-1.7658	2.1133
											CHANNELS 3 Zrotation Yrotation Xrotation
											End Site
											{
												OFFSET 2.7231 -1.1597 1.7903
											}
										}
									}
								}
								JOINT mixamorig:LeftHandIndex1
								{
									OFFSET	11.9722	-1.1061	3.7324
									CHANNELS 3 Zrotation Yrotation Xrotation
									JOINT mixamorig:LeftHandIndex2
									{
										OFFSET	3.8387	-0.6406	-0.0310
										CHANNELS 3 Zrotation Yrotation Xrotation
										JOINT mixamorig:LeftHandIndex3
										{
											OFFSET	3.3346	-0.7374	-0.0133
											CHANNELS 3 Zrotation Yrotation Xrotation
											End Site
											{
												OFFSET 2.9714 -0.8030 0.0009
											}
										}
									}
								}
								JOINT mixamorig:LeftHandRing1
								{
									OFFSET	12.1659	-1.6805	-1.2769
									CHANNELS 3 Zrotation Yrotation Xrotation
									JOINT mixamorig:LeftHandRing2
									{
										OFFSET	3.5925	-0.2366	-0.0771
										CHANNELS 3 Zrotation Yrotation Xrotation
										JOINT mixamorig:LeftHandRing3
										{
											OFFSET	3.2906	-0.3266	-0.0615
											CHANNELS 3 Zrotation Yrotation Xrotation
											End Site
											{
												OFFSET 3.5423 -0.9211 -0.0200
											}
										}
									}
								}
								JOINT mixamorig:LeftHandPinky1
								{
									OFFSET	11.0508	-2.1872	-3.8040
									CHANNELS 3 Zrotation Yrotation Xrotation
									JOINT mixamorig:LeftHandPinky2
									{
										OFFSET	4.1236	-0.3047	0.1212
										CHANNELS 3 Zrotation Yrotation Xrotation
										JOINT mixamorig:LeftHandPinky3
										{
											OFFSET	2.5805	-0.2597	0.0823
											CHANNELS 3 Zrotation Yrotation Xrotation
											End Site
											{
												OFFSET 2.9027 -0.3379 0.0963
											}
										}
									}
								}
							}
						}
					}
				}
				JOINT mixamorig:RightShoulder
				{
					OFFSET	-6.1057	9.1105	0.7056
					CHANNELS 3 Zrotation Yrotation Xrotation
					JOINT mixamorig:RightArm
					{
						OFFSET	-12.6532	-0.3429	-2.6009
						CHANNELS 3 Zrotation Yrotation Xrotation
						JOINT mixamorig:RightForeArm
						{
							OFFSET	-27.3518	-0.9642	-1.4034
							CHANNELS 3 Zrotation Yrotation Xrotation
							JOINT mixamorig:RightHand
							{
								OFFSET	-27.5619	-0.7068	1.5501
								CHANNELS 3 Zrotation Yrotation Xrotation
								JOINT mixamorig:RightHandMiddle1
								{
									OFFSET	-12.6630	-1.3960	0.9549
									CHANNELS 3 Zrotation Yrotation Xrotation
									JOINT mixamorig:RightHandMiddle2
									{
										OFFSET	-3.6093	-0.1669	0.0778
										CHANNELS 3 Zrotation Yrotation Xrotation
										JOINT mixamorig:RightHandMiddle3
										{
											OFFSET	-3.4004	-0.6273	0.1148
											CHANNELS 3 Zrotation Yrotation Xrotation
											End Site
											{
												OFFSET -3.6205 -0.6492 0.1199
											}
										}
									}
								}
								JOINT mixamorig:RightHandThumb1
								{
									OFFSET	-3.3269	-2.0474	3.5790
									CHANNELS 3 Zrotation Yrotation Xrotation
									JOINT mixamorig:RightHandThumb2
									{
										OFFSET	-3.4890	-1.4805	2.8548
										CHANNELS 3 Zrotation Yrotation Xrotation
										JOINT mixamorig:RightHandThumb3
										{
											OFFSET	-3.4086	-1.7658	2.1133
											CHANNELS 3 Zrotation Yrotation Xrotation
											End Site
											{
												OFFSET -2.7231 -1.1596 1.7903
											}
										}
									}
								}
								JOINT mixamorig:RightHandIndex1
								{
									OFFSET	-11.9722	-1.1059	3.7324
									CHANNELS 3 Zrotation Yrotation Xrotation
									JOINT mixamorig:RightHandIndex2
									{
										OFFSET	-3.8387	-0.6406	-0.0310
										CHANNELS 3 Zrotation Yrotation Xrotation
										JOINT mixamorig:RightHandIndex3
										{
											OFFSET	-3.3346	-0.7373	-0.0133
											CHANNELS 3 Zrotation Yrotation Xrotation
											End Site
											{
												OFFSET -2.9715 -0.8029 0.0009
											}
										}
									}
								}
								JOINT mixamorig:RightHandRing1
								{
									OFFSET	-12.1659	-1.6803	-1.2769
									CHANNELS 3 Zrotation Yrotation Xrotation
									JOINT mixamorig:RightHandRing2
									{
										OFFSET	-3.5925	-0.2366	-0.0771
										CHANNELS 3 Zrotation Yrotation Xrotation
										JOINT mixamorig:RightHandRing3
										{
											OFFSET	-3.2906	-0.3265	-0.0615
											CHANNELS 3 Zrotation Yrotation Xrotation
											End Site
											{
												OFFSET -3.5423 -0.9210 -0.0200
											}
										}
									}
								}
								JOINT mixamorig:RightHandPinky1
								{
									OFFSET	-11.0508	-2.1870	-3.8040
									CHANNELS 3 Zrotation Yrotation Xrotation
									JOINT mixamorig:RightHandPinky2
									{
										OFFSET	-4.1236	-0.3046	0.1212
										CHANNELS 3 Zrotation Yrotation Xrotation
										JOINT mixamorig:RightHandPinky3
										{
											OFFSET	-2.5805	-0.2597	0.0823
											CHANNELS 3 Zrotation Yrotation Xrotation
											End Site
											{
												OFFSET -2.9027 -0.3379 0.0963
											}
										}
									}
								}
							}
						}
					}
				}
			}
		}
	}
	JOINT mixamorig:RightUpLeg
	{
		OFFSET	-9.1245	-6.6564	-0.0554
		CHANNELS 3 Zrotation Yrotation Xrotation
		JOINT mixamorig:RightLeg
		{
			OFFSET	0.0000	-40.5610	-1.7662
			CHANNELS 3 Zrotation Yrotation Xrotation
			JOINT mixamorig:RightFoot
			{
				OFFSET	0.4978	-41.9625	-3.3512
				CHANNELS 3 Zrotation Yrotation Xrotation
				JOINT mixamorig:RightToeBase
				{
					OFFSET	-0.3734	-10.4922	12.6406
					CHANNELS 3 Zrotation Yrotation Xrotation
					End Site
					{
						OFFSET 0.0000 0.0000 9.9925
					}
				}
			}
		}
	}
	JOINT mixamorig:LeftUpLeg
	{
		OFFSET	9.1245	-6.6564	-0.0554
		CHANNELS 3 Zrotation Yrotation Xrotation
		JOINT mixamorig:LeftLeg
		{
			OFFSET	-0.0000	-40.5610	-1.7662
			CHANNELS 3 Zrotation Yrotation Xrotation
			JOINT mixamorig:LeftFoot
			{
				OFFSET	-0.4978	-41.9625	-3.3512
				CHANNELS 3 Zrotation Yrotation Xrotation
				JOINT mixamorig:LeftToeBase
				{
					OFFSET	0.3734	-10.4922	12.6406
					CHANNELS 3 Zrotation Yrotation Xrotation
					End Site
					{
						OFFSET -0.0000 0.0000 9.9925
					}
				}
			}
		}
	}
}
MOTION
Frames: 4
Frame Time: 0.0333333
-1.2575 98.6301 0.0378 -1.1838 -0.0515 -0.3793 0.1100 -0.2577 -0.0866 0.0256 -2.0667 -0.4204 0.0272 -2.0605 -0.4245 -1.3394 1.6039 -1.6877 2.2101 -0.6202 9.2690 0.0000 -0.0000 0.0000 0.0000 -0.0000 0.0000 0.0000 -0.0000 0.0000 1.5583 12.0971 -0.6887 -69.5746 -2.9930 18.8919 -0.3918 -25.1391 -0.6895 -4.6181 13.2013 20.6437 -30.9932 -5.0364 2.1481 -11.5137 -0.0826 0.3142 -15.3149 -0.6033 0.4748 -5.7009 14.5031 -6.6496 4.1479 6.5614 4.0855 -0.6866 3.8636 2.3295 -17.5292 -7.2446 0.3572 -28.0201 -0.8658 -0.1190 -9.8957 -0.2018 -0.0495 -36.3632 -8.7740 2.2421 -12.3239 -0.3934 -0.2363 -2.2129 0.3078 0.0218 -45.1261 -1.0899 3.5366 -14.6586 -4.4847 1.2093 -6.8044 -0.2336 0.2088 -5.9934 -2.5294 0.2063 77.5771 5.3109 21.4956 0.4408 21.0934 -0.5661 -5.6109 -13.5319 11.2932 21.5579 -1.1709 1.6489 18.0494 0.2793 0.5056 6.5811 -0.0474 -1.6399 0.9409 -23.1666 12.4674 -3.6549 7.3774 0.7498 0.1346 -1.2369 0.8552 6.0496 1.5376 0.3562 33.8963 1.0331 -0.0912 7.0570 0.0909 -0.0293 30.3478 4.5919 2.0053 15.7924 0.5165 -0.2868 -0.4706 -0.9545 -1.9838 39.6711 -0.1480 3.1740 13.4517 0.4069 0.4223 6.3216 0.2069 0.1937 -3.3402 -13.2869 -9.9372 -2.2586 -4.5977 13.8628 5.7479 -4.1212 -1.9873 0.0000 -0.0000 -0.1142 3.2629 3.5187 -10.7828 4.2810 8.4759 18.8545 -4.8546 2.5700 -6.7052 -0.0000 0.0000 -0.0498 
-0.8702 98.6054 -0.0171 -1.2831 -0.2947 -0.4480 0.0976 -0.2411 -0.0441 -0.0007 -2.0459 -0.3529 0.0023 -2.0401 -0.3564 -1.2601 1.5477 -1.6626 2.3106 -0.6737 9.3533 0.0000 -0.0000 0.0000 0.0000 -0.0000 0.0000 0.0000 -0.0000 0.0000 1.4377 12.0676 -0.6959 -69.4634 -3.2897 19.1709 -0.3938 -24.9900 -0.6849 -4.7127 13.3396 20.4823 -31.1439 -5.0082 2.1620 -11.6305 -0.0868 0.3174 -15.2635 -0.6015 0.4729 -5.6993 14.5171 -6.6469 4.1401 6.5503 4.0566 -0.6863 3.8479 2.3218 -17.6949 -7.1727 0.3832 -28.0968 -0.8686 -0.1187 -10.0310 -0.2066 -0.0503 -36.4514 -8.8039 2.2475 -12.4209 -0.3973 -0.2378 -2.1889 0.3087 0.0223 -45.4569 -1.1602 3.5577 -14.8625 -4.4887 1.2309 -6.8052 -0.2336 0.2089 -5.8378 -2.3600 0.2190 77.5487 5.4721 21.3028 0.4413 21.0378 -0.5645 -5.6138 -13.4885 11.1957 22.0894 -1.2718 1.6974 17.9777 0.2770 0.5034 6.4371 -0.0632 -1.7024 0.7827 -23.3144 12.7351 -3.6004 7.5339 0.4608 0.1230 -1.1169 0.7952 6.0484 1.4432 0.3717 34.0942 1.0399 -0.0898 7.0055 0.0891 -0.0290 30.7743 4.4659 2.0488 15.6402 0.5103 -0.2848 -0.5769 -0.9754 -2.0473 40.2380 -0.2990 3.2317 13.5055 0.4087 0.4242 6.1125 0.1992 0.1870 -3.4672 -13.4628 -9.8490 -2.2536 -4.4603 13.6543 5.9387 -3.9091 -1.7247 0.0000 0.0000 -0.2383 3.1371 3.3686 -10.9063 4.2575 8.4559 19.2572 -4.6409 2.9411 -6.9768 -0.0000 0.0000 -0.0665 
-0.4725 98.5666 -0.0822 -1.3728 -0.5423 -0.5331 0.0790 -0.2180 0.0108 -0.0330 -2.0246 -0.2655 -0.0283 -2.0194 -0.2682 -1.1734 1.4835 -1.6517 2.4435 -0.7475 9.3938 0.0000 -0.0000 0.0000 0.0000 -0.0000 0.0000 0.0000 -0.0000 0.0000 1.3114 11.9608 -0.6973 -69.3812 -3.6783 19.6264 -0.3963 -24.8053 -0.6791 -4.8214 13.4806 20.1924 -31.2511 -4.9982 2.1714 -11.7844 -0.0924 0.3217 -15.2249 -0.6002 0.4716 -5.6939 14.5070 -6.6516 4.1413 6.5539 4.0666 -0.6919 3.8622 2.3306 -17.8164 -7.1362 0.3996 -28.2205 -0.8730 -0.1183 -10.1999 -0.2126 -0.0512 -36.5110 -8.8296 2.2508 -12.5371 -0.4021 -0.2396 -2.1708 0.3094 0.0227 -45.7569 -1.2087 3.5780 -15.0811 -4.4930 1.2541 -6.8053 -0.2336 0.2089 -5.6385 -2.1025 0.2418 77.4795 5.7154 21.1451 0.4422 20.9612 -0.5622 -5.6007 -13.4948 11.0286 22.2548 -1.3487 1.7147 18.2164 0.2846 0.5108 6.3678 -0.0650 -1.6999 0.6951 -23.4317 12.9740 -3.5581 7.6612 0.2250 0.1118 -1.0165 0.7443 6.1123 1.3702 0.3889 34.2924 1.0466 -0.0884 6.9315 0.0866 -0.0284 30.9055 4.3821 2.0652 15.9090 0.5213 -0.2884 -0.6075 -0.9761 -2.0450 40.4317 -0.3911 3.2545 13.7066 0.4152 0.4312 6.0670 0.1976 0.1856 -3.6145 -13.6461 -9.8181 -2.2571 -4.3082 13.5744 6.1449 -3.6836 -1.5136 -0.0000 -0.0000 -0.2934 2.9866 3.2709 -11.0599 4.2627 8.4237 19.7378 -4.4329 3.2632 -7.2763 0.0000 -0.0000 -0.0844 
-0.0667 98.5152 -0.1546 -1.4579 -0.7856 -0.6301 0.0531 -0.1884 0.0768 -0.0729 -2.0034 -0.1601 -0.0665 -1.9989 -0.1617 -1.0748 1.4096 -1.6518 2.6245 -0.8487 9.3936 0.0000 -0.0000 0.0000 0.0000 -0.0000 0.0000 0.0000 -0.0000 0.0000 1.2032 11.7633 -0.6897 -69.3452 -4.1539 20.2606 -0.3990 -24.5938 -0.6725 -4.9354 13.6118 19.7859 -31.2776 -4.9956 2.1738 -11.9947 -0.1000 0.3275 -15.2110 -0.5998 0.4711 -5.6852 14.4686 -6.6646 4.1557 6.5769 4.1275 -0.7033 3.9128 2.3589 -17.8614 -7.1369 0.4033 -28.4205 -0.8802 -0.1175 -10.4175 -0.2203 -0.0523 -36.5135 -8.8241 2.2514 -12.6802 -0.4080 -0.2418 -2.1641 0.3096 0.0229 -45.9734 -1.1961 3.5962 -15.3125 -4.4974 1.2786 -6.8045 -0.2336 0.2089 -5.3705 -1.7225 0.2809 77.3167 6.0060 21.0331 0.4428 20.9034 -0.5605 -5.5729 -13.5454 10.7818 22.0621 -1.3836 1.7003 18.7505 0.3015 0.5276 6.3861 -0.0532 -1.6375 0.6932 -23.4940 13.1255 -3.5367 7.7295 0.0980 0.1038 -0.9594 0.7146 6.2065 1.3349 0.4023 34.5074 1.0540 -0.0869 6.8558 0.0841 -0.0279 30.7611 4.3582 2.0547 16.5690 0.5482 -0.2969 -0.5593 -0.9576 -1.9819 40.2815 -0.4067 3.2434 14.0080 0.4249 0.4419 6.1853 0.2019 0.1893 -3.7756 -13.8146 -9.8345 -2.2708 -4.1604 13.6014 6.3657 -3.4549 -1.3468 -0.0000 -0.0000 -0.2831 2.8155 3.2381 -11.2417 4.2987 8.3768 20.2832 -4.2314 3.5266 -7.5974 0.0000 0.0000 -0.0937 
